<?xml version="1.0" encoding="UTF-8"?>
<svg xmlns="http://www.w3.org/2000/svg" xmlns:xlink="http://www.w3.org/1999/xlink" width="25px" height="px" viewBox="0 0 25 33" version="1.1">
<g id="surface1">
<path style=" stroke:none;fill-rule:nonzero;fill:rgb(14.901961%,13.725491%,30.19608%);fill-opacity:1;" d="M 22.378906 6.875 L 22.378906 5.121094 L 23.667969 4.125 L 9.742188 4.125 L 1.332031 11.363281 L 6.910156 11.363281 C 6.898438 11.5 6.894531 11.621094 6.894531 11.761719 C 6.894531 13.105469 7.367188 14.21875 8.304688 15.105469 C 9.246094 15.996094 10.40625 16.4375 11.777344 16.4375 C 12.097656 16.4375 12.414062 16.414062 12.71875 16.371094 C 12.527344 16.789062 12.433594 17.175781 12.433594 17.539062 C 12.433594 18.175781 12.726562 18.855469 13.308594 19.578125 C 10.753906 19.75 8.878906 20.207031 7.683594 20.941406 C 6.996094 21.363281 6.445312 21.890625 6.03125 22.523438 C 5.613281 23.160156 5.40625 23.847656 5.40625 24.582031 C 5.40625 25.207031 5.539062 25.765625 5.8125 26.265625 C 6.082031 26.761719 6.433594 27.171875 6.871094 27.488281 C 7.308594 27.808594 7.816406 28.074219 8.382812 28.289062 C 8.953125 28.507812 9.519531 28.660156 10.082031 28.746094 C 10.644531 28.832031 11.203125 28.875 11.753906 28.875 C 12.632812 28.875 13.507812 28.761719 14.394531 28.539062 C 15.277344 28.316406 16.105469 27.984375 16.878906 27.542969 C 17.652344 27.105469 18.28125 26.503906 18.761719 25.753906 C 19.242188 25.003906 19.484375 24.15625 19.484375 23.21875 C 19.484375 22.511719 19.339844 21.863281 19.046875 21.277344 C 18.753906 20.691406 18.398438 20.210938 17.972656 19.835938 C 17.550781 19.460938 17.128906 19.117188 16.703125 18.808594 C 16.28125 18.496094 15.921875 18.179688 15.632812 17.855469 C 15.339844 17.527344 15.191406 17.207031 15.191406 16.886719 C 15.191406 16.570312 15.304688 16.265625 15.53125 15.96875 C 15.757812 15.671875 16.03125 15.386719 16.355469 15.109375 C 16.675781 14.835938 16.996094 14.53125 17.316406 14.199219 C 17.636719 13.867188 17.914062 13.4375 18.136719 12.910156 C 18.363281 12.382812 18.476562 11.785156 18.476562 11.121094 C 18.476562 10.253906 18.3125 9.542969 17.984375 8.972656 C 17.945312 8.90625 17.90625 8.859375 17.863281 8.777344 L 21.566406 5.769531 L 21.566406 6.875 C 21.085938 6.933594 21.136719 7.21875 21.136719 7.558594 L 21.136719 15.851562 C 21.136719 16.238281 21.453125 16.550781 21.84375 16.550781 L 22.101562 16.550781 C 22.488281 16.550781 22.808594 16.238281 22.808594 15.851562 L 22.808594 7.558594 C 22.808594 7.21875 22.859375 6.933594 22.378906 6.875 Z M 15.390625 21.214844 C 15.464844 21.261719 15.632812 21.394531 15.894531 21.601562 C 16.15625 21.8125 16.335938 21.96875 16.429688 22.082031 C 16.523438 22.1875 16.664062 22.351562 16.847656 22.566406 C 17.03125 22.785156 17.152344 22.972656 17.21875 23.128906 C 17.285156 23.289062 17.351562 23.484375 17.417969 23.707031 C 17.480469 23.929688 17.511719 24.15625 17.511719 24.386719 C 17.511719 25.488281 17.085938 26.300781 16.234375 26.828125 C 15.378906 27.355469 14.359375 27.621094 13.179688 27.621094 C 12.578125 27.621094 11.992188 27.546875 11.417969 27.414062 C 10.839844 27.277344 10.289062 27.070312 9.761719 26.792969 C 9.238281 26.519531 8.8125 26.136719 8.492188 25.648438 C 8.171875 25.15625 8.011719 24.589844 8.011719 23.957031 C 8.011719 23.289062 8.195312 22.710938 8.558594 22.222656 C 8.925781 21.730469 9.402344 21.359375 9.992188 21.105469 C 10.585938 20.851562 11.183594 20.671875 11.789062 20.5625 C 12.394531 20.453125 13.011719 20.398438 13.640625 20.398438 C 13.929688 20.398438 14.15625 20.414062 14.316406 20.445312 C 14.347656 20.457031 14.515625 20.578125 14.820312 20.800781 C 15.128906 21.027344 15.316406 21.164062 15.390625 21.214844 Z M 15.171875 14.730469 C 14.691406 15.300781 14.015625 15.589844 13.15625 15.589844 C 12.382812 15.589844 11.703125 15.28125 11.121094 14.664062 C 10.535156 14.050781 10.117188 13.355469 9.863281 12.574219 C 9.605469 11.796875 9.476562 11.03125 9.476562 10.277344 C 9.476562 9.394531 9.710938 8.644531 10.179688 8.023438 C 10.648438 7.402344 11.320312 7.089844 12.195312 7.089844 C 12.964844 7.089844 13.648438 7.414062 14.238281 8.066406 C 14.832031 8.714844 15.257812 9.445312 15.511719 10.257812 C 15.765625 11.0625 15.894531 11.835938 15.894531 12.574219 C 15.894531 13.441406 15.652344 14.160156 15.171875 14.730469 Z M 15.171875 14.730469 "/>
</g>
</svg>
