<?xml version="1.0" encoding="UTF-8"?>
<svg xmlns="http://www.w3.org/2000/svg" xmlns:xlink="http://www.w3.org/1999/xlink" width="11px" height="px" viewBox="0 0 11 11" version="1.1">
<g id="surface1">
<path style=" stroke:none;fill-rule:nonzero;fill:rgb(14.901961%,13.725491%,30.19608%);fill-opacity:1;" d="M 3.242188 4.496094 L 2.296875 5.441406 C 1.492188 6.246094 1.492188 7.550781 2.296875 8.359375 C 3.105469 9.164062 4.410156 9.164062 5.214844 8.359375 L 6.472656 7.101562 C 6.945312 6.628906 7.160156 5.953125 7.046875 5.292969 C 6.933594 4.632812 6.507812 4.070312 5.902344 3.78125 L 5.5 4.183594 C 5.460938 4.226562 5.421875 4.269531 5.394531 4.320312 C 5.863281 4.457031 6.222656 4.828125 6.34375 5.300781 C 6.46875 5.769531 6.332031 6.269531 5.984375 6.613281 L 4.730469 7.871094 C 4.191406 8.410156 3.320312 8.410156 2.785156 7.871094 C 2.246094 7.335938 2.246094 6.464844 2.785156 5.925781 L 3.328125 5.382812 C 3.253906 5.09375 3.222656 4.792969 3.242188 4.496094 Z M 3.242188 4.496094 "/>
<path style=" stroke:none;fill-rule:nonzero;fill:rgb(14.901961%,13.725491%,30.19608%);fill-opacity:1;" d="M 4.527344 3.210938 C 4.054688 3.683594 3.839844 4.359375 3.953125 5.019531 C 4.066406 5.679688 4.492188 6.242188 5.097656 6.53125 L 5.628906 5.996094 C 5.15625 5.871094 4.785156 5.5 4.65625 5.023438 C 4.53125 4.550781 4.667969 4.042969 5.015625 3.699219 L 6.269531 2.441406 C 6.808594 1.902344 7.679688 1.902344 8.214844 2.441406 C 8.753906 2.976562 8.753906 3.847656 8.214844 4.386719 L 7.671875 4.929688 C 7.746094 5.21875 7.777344 5.519531 7.757812 5.816406 L 8.703125 4.871094 C 9.507812 4.066406 9.507812 2.761719 8.703125 1.957031 C 7.894531 1.148438 6.589844 1.148438 5.785156 1.957031 Z M 4.527344 3.210938 "/>
</g>
</svg>
