<svg xmlns="http://www.w3.org/2000/svg" width="16" height="16" fill="currentColor"><rect id="backgroundrect" width="100%" height="100%" x="0" y="0" fill="none" stroke="none"/>
  
  
<g class="currentLayer" style=""><title>Layer 1</title><path d="M4.715,6.542 L3.343,7.914 a3,3 0 1 0 4.243,4.243 l1.828,-1.8290000000000002 A3,3 0 0 0 8.586,5.5 L8,6.086 a1.002,1.002 0 0 0 -0.15400000000000003,0.19900000000000004 a2,2 0 0 1 0.8610000000000001,3.337 L6.88,11.45 a2,2 0 1 1 -2.83,-2.83 l0.793,-0.792 a4.018,4.018 0 0 1 -0.128,-1.287 z" id="svg_1" class="" fill-opacity="1" fill="#26234d"/><path d="M6.586 4.672A3 3 0 0 0 7.414 9.5l.775-.776a2 2 0 0 1-.896-3.346L9.12 3.55a2 2 0 1 1 2.83 2.83l-.793.792c.112.42.155.855.128 1.287l1.372-1.372a3 3 0 1 0-4.243-4.243L6.586 4.672z" id="svg_2" class="" fill-opacity="1" fill="#26234d"/></g></svg>