<?xml version="1.0" encoding="UTF-8"?>
<svg xmlns="http://www.w3.org/2000/svg" xmlns:xlink="http://www.w3.org/1999/xlink" width="25px" height="px" viewBox="0 0 25 28" version="1.1">
<g id="surface1">
<path style=" stroke:none;fill-rule:nonzero;fill:rgb(14.901961%,13.725491%,30.19608%);fill-opacity:1;" d="M 5.597656 24.5 L 0.414062 24.5 L 0.414062 8.144531 L 5.597656 8.144531 Z M 3 5.910156 C 1.34375 5.910156 0 4.566406 0 2.941406 C 0 1.316406 1.34375 0 3 0 C 4.660156 0 6.003906 1.316406 6.003906 2.941406 C 6.003906 4.566406 4.660156 5.910156 3 5.910156 Z M 24.996094 24.5 L 19.824219 24.5 L 19.824219 16.539062 C 19.824219 14.640625 19.785156 12.207031 17.128906 12.207031 C 14.433594 12.207031 14.019531 14.269531 14.019531 16.402344 L 14.019531 24.5 L 8.84375 24.5 L 8.84375 8.144531 L 13.8125 8.144531 L 13.8125 10.375 L 13.886719 10.375 C 14.578125 9.089844 16.269531 7.734375 18.789062 7.734375 C 24.035156 7.734375 25 11.117188 25 15.515625 L 25 24.5 Z M 24.996094 24.5 "/>
</g>
</svg>
