<?xml version="1.0" encoding="UTF-8"?>
<svg xmlns="http://www.w3.org/2000/svg" xmlns:xlink="http://www.w3.org/1999/xlink" width="25px" height="px" viewBox="0 0 25 25" version="1.1">
<g id="surface1">
<path style=" stroke:none;fill-rule:nonzero;fill:rgb(14.901961%,13.725491%,30.19608%);fill-opacity:1;" d="M 16.4375 9.5 C 16.089844 9.335938 15.757812 9.226562 15.449219 9.175781 C 15.136719 9.121094 14.636719 9.097656 13.949219 9.097656 L 12.15625 9.097656 L 12.15625 16.554688 L 13.992188 16.554688 C 14.710938 16.554688 15.265625 16.507812 15.664062 16.410156 C 16.0625 16.308594 16.394531 16.1875 16.660156 16.035156 C 16.925781 15.886719 17.167969 15.699219 17.386719 15.480469 C 18.09375 14.761719 18.449219 13.855469 18.449219 12.757812 C 18.449219 11.683594 18.085938 10.804688 17.359375 10.125 C 17.089844 9.871094 16.78125 9.664062 16.4375 9.5 Z M 12.5 0.390625 C 5.8125 0.390625 0.390625 5.8125 0.390625 12.5 C 0.390625 19.1875 5.8125 24.609375 12.5 24.609375 C 19.1875 24.609375 24.609375 19.1875 24.609375 12.5 C 24.609375 5.8125 19.1875 0.390625 12.5 0.390625 Z M 8.480469 17.847656 L 7.042969 17.847656 L 7.042969 7.820312 L 8.480469 7.820312 Z M 7.761719 6.773438 C 7.21875 6.773438 6.773438 6.332031 6.773438 5.785156 C 6.773438 5.242188 7.214844 4.800781 7.761719 4.800781 C 8.308594 4.800781 8.75 5.242188 8.75 5.785156 C 8.75 6.332031 8.308594 6.773438 7.761719 6.773438 Z M 19.546875 14.761719 C 19.289062 15.371094 18.921875 15.910156 18.441406 16.375 C 17.953125 16.855469 17.386719 17.214844 16.742188 17.460938 C 16.363281 17.605469 16.015625 17.707031 15.699219 17.757812 C 15.382812 17.808594 14.78125 17.832031 13.890625 17.832031 L 10.71875 17.832031 L 10.71875 7.820312 L 14.097656 7.820312 C 15.464844 7.820312 16.542969 8.023438 17.335938 8.433594 C 18.132812 8.839844 18.761719 9.445312 19.230469 10.238281 C 19.699219 11.03125 19.933594 11.898438 19.933594 12.835938 C 19.9375 13.507812 19.804688 14.148438 19.546875 14.761719 Z M 19.546875 14.761719 "/>
</g>
</svg>
