<?xml version="1.0" encoding="UTF-8"?>
<svg xmlns="http://www.w3.org/2000/svg" xmlns:xlink="http://www.w3.org/1999/xlink" width="11px" height="px" viewBox="0 0 11 11" version="1.1">
<g id="surface1">
<path style=" stroke:none;fill-rule:evenodd;fill:rgb(14.901961%,13.725491%,30.19608%);fill-opacity:1;" d="M 1.296875 0.351562 C 1.539062 0.109375 1.875 -0.0195312 2.21875 0.00390625 C 2.5625 0.0234375 2.878906 0.191406 3.089844 0.464844 L 4.324219 2.046875 C 4.550781 2.339844 4.628906 2.71875 4.539062 3.074219 L 4.164062 4.582031 C 4.125 4.738281 4.171875 4.90625 4.289062 5.023438 L 5.976562 6.710938 C 6.09375 6.828125 6.261719 6.875 6.417969 6.835938 L 7.925781 6.460938 C 8.28125 6.371094 8.660156 6.449219 8.953125 6.675781 L 10.535156 7.910156 C 11.105469 8.351562 11.160156 9.195312 10.648438 9.703125 L 9.9375 10.414062 C 9.429688 10.921875 8.667969 11.148438 7.960938 10.898438 C 6.144531 10.257812 4.5 9.21875 3.140625 7.859375 C 1.777344 6.5 0.738281 4.855469 0.101562 3.039062 C -0.148438 2.332031 0.078125 1.570312 0.585938 1.0625 Z M 1.296875 0.351562 "/>
</g>
</svg>
